<svg enable-background="new 0 0 612 612" height="612" viewBox="0 0 612 612" width="612" xmlns="http://www.w3.org/2000/svg"><path d="m401.625 325.125h-191.25c-10.557 0-19.125 8.568-19.125 19.125s8.568 19.125 19.125 19.125h191.25c10.557 0 19.125-8.568 19.125-19.125s-8.568-19.125-19.125-19.125zm38.25-114.75h-267.75c-10.557 0-19.125 8.568-19.125 19.125s8.568 19.125 19.125 19.125h267.75c10.557 0 19.125-8.568 19.125-19.125s-8.568-19.125-19.125-19.125zm-133.875-210.375c-168.988 0-306 119.875-306 267.75 0 84.514 44.848 159.751 114.75 208.826v135.424l134.047-81.339c18.552 3.061 37.638 4.839 57.203 4.839 169.008 0 306-119.875 306-267.75 0-147.875-136.992-267.75-306-267.75zm0 497.25c-22.338 0-43.911-2.601-64.643-7.019l-90.041 54.123 1.205-88.701c-69.021-41.52-114.271-110.14-114.271-187.903 0-126.741 119.875-229.5 267.75-229.5s267.75 102.759 267.75 229.5-119.875 229.5-267.75 229.5z"/></svg>