<svg width="209" height="37" viewBox="0 0 209 37" fill="none" xmlns="http://www.w3.org/2000/svg">
<path d="M16.32 4.512V20.832C17.728 20.832 18.928 20.544 19.92 19.968C20.944 19.36 21.776 18.592 22.416 17.664C23.056 16.736 23.52 15.696 23.808 14.544C24.128 13.36 24.288 12.192 24.288 11.04C24.288 10.016 24.176 8.96 23.952 7.872C23.76 6.784 23.328 5.792 22.656 4.896C21.984 3.968 21.024 3.216 19.776 2.64C18.528 2.032 16.864 1.728 14.784 1.728C13.376 1.728 12.048 1.952 10.8 2.4C9.552 2.816 8.464 3.44 7.536 4.272C6.64 5.072 5.92 6.08 5.376 7.296C4.864 8.48 4.608 9.856 4.608 11.424C4.608 12.416 4.688 13.248 4.848 13.92C5.008 14.592 5.2 15.152 5.424 15.6C5.648 16.048 5.872 16.4 6.096 16.656C6.32 16.88 6.496 17.04 6.624 17.136C4.832 17.136 3.424 16.688 2.4 15.792C1.376 14.896 0.864 13.408 0.864 11.328C0.864 9.792 1.264 8.352 2.064 7.008C2.864 5.632 3.936 4.432 5.28 3.408C6.624 2.352 8.176 1.52 9.936 0.912C11.696 0.303998 13.552 -2.86102e-06 15.504 -2.86102e-06C17.616 -2.86102e-06 19.504 0.271997 21.168 0.815998C22.832 1.328 24.224 2.064 25.344 3.024C26.464 3.952 27.312 5.04 27.888 6.288C28.496 7.536 28.8 8.88 28.8 10.32C28.8 11.664 28.56 13.056 28.08 14.496C27.6 15.904 26.88 17.184 25.92 18.336C24.96 19.488 23.76 20.448 22.32 21.216C20.912 21.952 19.264 22.32 17.376 22.32H16.32V36H11.136V5.232L16.32 4.512ZM35.8841 12V28.32C35.8841 28.64 35.9001 29.04 35.9321 29.52C35.9641 30 36.0441 30.48 36.1721 30.96C36.3321 31.408 36.5561 31.808 36.8441 32.16C37.1321 32.48 37.5321 32.64 38.0441 32.64C39.6121 32.64 40.7641 30.896 41.5001 27.408H43.2761C42.9241 29.424 42.4761 31.024 41.9321 32.208C41.3881 33.36 40.8121 34.24 40.2041 34.848C39.5961 35.456 38.9721 35.84 38.3321 36C37.6921 36.192 37.1161 36.288 36.6041 36.288C35.4841 36.288 34.5721 36.08 33.8681 35.664C33.1641 35.216 32.6041 34.656 32.1881 33.984C31.7721 33.312 31.4841 32.56 31.3241 31.728C31.1641 30.896 31.0841 30.096 31.0841 29.328V12H35.8841ZM30.2201 5.088C30.2201 4.224 30.5241 3.472 31.1321 2.832C31.7401 2.192 32.4921 1.872 33.3881 1.872C34.2521 1.872 35.0041 2.192 35.6441 2.832C36.2841 3.472 36.6041 4.224 36.6041 5.088C36.6041 5.984 36.2841 6.736 35.6441 7.344C35.0041 7.952 34.2521 8.256 33.3881 8.256C32.4921 8.256 31.7401 7.952 31.1321 7.344C30.5241 6.736 30.2201 5.984 30.2201 5.088ZM52.3384 19.344C52.5944 19.12 52.7864 18.768 52.9144 18.288C53.0744 17.776 53.1544 17.296 53.1544 16.848C53.1544 16.112 52.9144 15.504 52.4344 15.024C51.9864 14.544 51.3464 14.304 50.5144 14.304C49.6504 14.304 48.9304 14.624 48.3544 15.264C47.7784 15.904 47.3144 16.72 46.9624 17.712C46.6104 18.672 46.3544 19.76 46.1944 20.976C46.0664 22.16 46.0024 23.328 46.0024 24.48C46.0024 26.176 46.1464 27.552 46.4344 28.608C46.7544 29.664 47.1704 30.496 47.6824 31.104C48.1944 31.68 48.7864 32.08 49.4584 32.304C50.1624 32.528 50.8984 32.64 51.6664 32.64C53.3624 32.64 54.7864 32.224 55.9384 31.392C57.1224 30.528 58.1304 29.2 58.9624 27.408H60.5944C60.2104 28.592 59.6664 29.728 58.9624 30.816C58.2584 31.872 57.4424 32.816 56.5144 33.648C55.5864 34.448 54.5784 35.088 53.4904 35.568C52.4024 36.048 51.2664 36.288 50.0824 36.288C48.9624 36.288 47.8584 36.096 46.7704 35.712C45.6824 35.328 44.7064 34.704 43.8424 33.84C42.9784 32.944 42.2744 31.792 41.7304 30.384C41.1864 28.944 40.9144 27.184 40.9144 25.104C40.9144 23.76 41.0264 22.32 41.2504 20.784C41.5064 19.216 41.9544 17.776 42.5944 16.464C43.2664 15.12 44.1784 14 45.3304 13.104C46.4824 12.208 47.9704 11.76 49.7944 11.76C51.8104 11.76 53.3464 12.256 54.4024 13.248C55.4584 14.208 55.9864 15.632 55.9864 17.52C55.9864 18.32 55.8264 18.992 55.5064 19.536C55.2184 20.08 54.7544 20.352 54.1144 20.352C53.4104 20.352 52.8184 20.016 52.3384 19.344ZM63.7747 4.704V12H67.4708V13.68H63.7747V28.32C63.7747 28.704 63.7908 29.152 63.8228 29.664C63.8548 30.144 63.9348 30.608 64.0628 31.056C64.2228 31.504 64.4468 31.888 64.7348 32.208C65.0548 32.496 65.4868 32.64 66.0308 32.64C66.8948 32.64 67.7108 32.208 68.4788 31.344C69.2788 30.48 69.9028 29.168 70.3508 27.408H72.1268C71.5828 29.424 70.9908 31.024 70.3508 32.208C69.7428 33.36 69.1028 34.24 68.4308 34.848C67.7588 35.456 67.0868 35.84 66.4148 36C65.7748 36.192 65.1828 36.288 64.6388 36.288C63.4868 36.288 62.5428 36.08 61.8068 35.664C61.0708 35.216 60.4948 34.656 60.0788 33.984C59.6628 33.312 59.3748 32.576 59.2148 31.776C59.0548 30.944 58.9748 30.128 58.9748 29.328V13.68H57.3428V12H58.9748V5.376L63.7747 4.704ZM86.4945 12V28.32C86.4945 28.64 86.5105 29.04 86.5425 29.52C86.5745 30 86.6545 30.48 86.7825 30.96C86.9425 31.408 87.1665 31.808 87.4545 32.16C87.7425 32.48 88.1425 32.64 88.6545 32.64C90.2225 32.64 91.3745 30.896 92.1105 27.408H93.8865C93.5345 29.424 93.0865 31.024 92.5425 32.208C91.9985 33.36 91.4225 34.24 90.8145 34.848C90.2065 35.456 89.5825 35.84 88.9425 36C88.3025 36.192 87.7265 36.288 87.2145 36.288C86.4785 36.288 85.8385 36.16 85.2945 35.904C84.7825 35.648 84.3345 35.312 83.9505 34.896C83.5985 34.48 83.3105 34 83.0865 33.456C82.8625 32.912 82.6865 32.352 82.5585 31.776C81.9505 33.344 81.1505 34.496 80.1585 35.232C79.1665 35.936 78.1265 36.288 77.0385 36.288C76.1105 36.288 75.2305 36.16 74.3985 35.904C73.5665 35.648 72.8465 35.232 72.2385 34.656C71.6305 34.048 71.1505 33.28 70.7985 32.352C70.4465 31.392 70.2705 30.224 70.2705 28.848V12H75.0705V28.32C75.0705 29.888 75.3425 31.008 75.8865 31.68C76.4305 32.32 77.1185 32.64 77.9505 32.64C78.3985 32.64 78.8465 32.528 79.2945 32.304C79.7425 32.048 80.1425 31.696 80.4945 31.248C80.8465 30.8 81.1345 30.256 81.3585 29.616C81.5825 28.976 81.6945 28.24 81.6945 27.408V12H86.4945ZM96.8674 12V16.032C97.2514 15.456 97.6194 14.912 97.9714 14.4C98.3554 13.888 98.7714 13.44 99.2194 13.056C99.6674 12.672 100.163 12.368 100.707 12.144C101.251 11.888 101.859 11.76 102.531 11.76C103.619 11.76 104.419 12.048 104.931 12.624C105.443 13.168 105.699 13.84 105.699 14.64C105.699 15.12 105.619 15.52 105.459 15.84C105.299 16.16 105.107 16.416 104.883 16.608C104.659 16.8 104.419 16.944 104.163 17.04C103.907 17.104 103.683 17.136 103.491 17.136C103.203 17.136 102.963 17.072 102.771 16.944C102.611 16.816 102.435 16.688 102.243 16.56C102.083 16.4 101.891 16.256 101.667 16.128C101.443 16 101.155 15.936 100.803 15.936C100.067 15.936 99.3634 16.192 98.6914 16.704C98.0194 17.216 97.4114 17.76 96.8674 18.336V36H92.0674V12H96.8674ZM123.216 18C123.216 20.24 122.288 22.112 120.432 23.616C118.608 25.12 116.064 26.048 112.8 26.4C112.928 27.68 113.152 28.72 113.472 29.52C113.824 30.32 114.24 30.96 114.72 31.44C115.2 31.888 115.744 32.208 116.352 32.4C116.992 32.56 117.648 32.64 118.32 32.64C119.344 32.64 120.304 32.464 121.2 32.112C122.128 31.76 122.896 31.152 123.504 30.288C123.536 30.512 123.552 30.736 123.552 30.96C123.584 31.152 123.6 31.328 123.6 31.488C123.6 32.224 123.408 32.88 123.024 33.456C122.672 34.032 122.176 34.544 121.536 34.992C120.928 35.408 120.208 35.728 119.376 35.952C118.576 36.176 117.728 36.288 116.832 36.288C115.744 36.288 114.656 36.096 113.568 35.712C112.48 35.296 111.488 34.656 110.592 33.792C109.728 32.896 109.024 31.744 108.48 30.336C107.936 28.928 107.664 27.216 107.664 25.2C107.664 23.856 107.808 22.4 108.096 20.832C108.416 19.264 108.928 17.808 109.632 16.464C110.368 15.12 111.312 14 112.464 13.104C113.648 12.208 115.104 11.76 116.832 11.76C117.632 11.76 118.4 11.856 119.136 12.048C119.904 12.208 120.592 12.528 121.2 13.008C121.808 13.456 122.288 14.08 122.64 14.88C123.024 15.68 123.216 16.72 123.216 18ZM112.752 24.528C115.024 24.176 116.816 23.376 118.128 22.128C119.472 20.88 120.144 19.344 120.144 17.52C120.144 16.304 119.936 15.44 119.52 14.928C119.104 14.384 118.512 14.112 117.744 14.112C116.912 14.112 116.176 14.432 115.536 15.072C114.928 15.712 114.416 16.544 114 17.568C113.584 18.56 113.264 19.68 113.04 20.928C112.848 22.144 112.752 23.344 112.752 24.528ZM178.824 28.512C178.824 28.768 178.84 29.136 178.872 29.616C178.904 30.064 178.984 30.512 179.112 30.96C179.24 31.408 179.448 31.808 179.736 32.16C180.024 32.48 180.44 32.64 180.984 32.64C181.72 32.64 182.376 32.224 182.952 31.392C183.56 30.56 184.056 29.232 184.44 27.408H186.216C185.864 29.424 185.416 31.024 184.872 32.208C184.328 33.36 183.752 34.24 183.144 34.848C182.536 35.456 181.928 35.84 181.32 36C180.712 36.192 180.152 36.288 179.64 36.288C178.616 36.288 177.752 36.096 177.048 35.712C176.344 35.296 175.768 34.752 175.32 34.08C174.872 33.408 174.536 32.624 174.312 31.728C174.12 30.832 174.024 29.904 174.024 28.944C174.024 28.656 174.024 28.128 174.024 27.36C174.056 26.56 174.072 25.712 174.072 24.816C174.104 23.92 174.12 23.072 174.12 22.272C174.152 21.472 174.168 20.912 174.168 20.592C174.168 19.568 174.088 18.72 173.928 18.048C173.768 17.376 173.544 16.848 173.256 16.464C172.968 16.08 172.632 15.808 172.248 15.648C171.896 15.488 171.512 15.408 171.096 15.408C170.104 15.408 169.24 15.808 168.504 16.608C167.8 17.408 167.224 18.752 166.776 20.64V36H161.976V5.088C160.92 5.024 159.816 4.928 158.664 4.8C157.544 4.64 156.36 4.448 155.112 4.224V36H149.832V3.84C149.512 3.808 149.192 3.792 148.872 3.792C148.584 3.76 148.28 3.744 147.96 3.744C145.272 3.744 143.176 4.24 141.672 5.232C140.2 6.192 139.464 7.952 139.464 10.512C139.464 12.432 139.704 13.904 140.184 14.928C140.696 15.92 141.176 16.672 141.624 17.184C140.824 17.184 140.072 17.072 139.368 16.848C138.696 16.592 138.104 16.192 137.592 15.648C137.08 15.104 136.68 14.4 136.392 13.536C136.104 12.64 135.96 11.536 135.96 10.224C135.96 8.912 136.216 7.648 136.728 6.432C137.24 5.216 138.056 4.144 139.176 3.216C140.328 2.256 141.8 1.488 143.592 0.912C145.416 0.335999 147.64 0.0479994 150.264 0.0479994C151.544 0.0479994 152.664 0.111999 153.624 0.239997C154.616 0.335998 155.544 0.463998 156.408 0.623998C157.272 0.751998 158.12 0.879998 158.952 1.008C159.816 1.104 160.744 1.152 161.736 1.152C163.08 1.152 164.216 1.12 165.144 1.056C166.072 0.991999 166.84 0.831999 167.448 0.575998C167.32 1.056 167.208 1.568 167.112 2.112C167.048 2.624 166.984 3.2 166.92 3.84C166.888 4.448 166.856 5.136 166.824 5.904C166.792 6.672 166.776 7.568 166.776 8.592V15.648C167.256 14.784 167.736 14.096 168.216 13.584C168.728 13.04 169.24 12.64 169.752 12.384C170.264 12.128 170.744 11.968 171.192 11.904C171.672 11.808 172.12 11.76 172.536 11.76C173.976 11.76 175.128 12.032 175.992 12.576C176.888 13.12 177.56 13.824 178.008 14.688C178.456 15.52 178.744 16.448 178.872 17.472C179.032 18.464 179.112 19.424 179.112 20.352C179.112 20.928 179.096 21.568 179.064 22.272C179.032 22.944 179 23.648 178.968 24.384C178.936 25.088 178.904 25.808 178.872 26.544C178.84 27.248 178.824 27.904 178.824 28.512ZM189.259 12V28.32C189.259 28.64 189.275 29.04 189.307 29.52C189.339 30 189.419 30.48 189.547 30.96C189.707 31.408 189.931 31.808 190.219 32.16C190.507 32.48 190.907 32.64 191.419 32.64C192.987 32.64 194.139 30.896 194.875 27.408H196.651C196.299 29.424 195.851 31.024 195.307 32.208C194.763 33.36 194.187 34.24 193.579 34.848C192.971 35.456 192.347 35.84 191.707 36C191.067 36.192 190.491 36.288 189.979 36.288C188.859 36.288 187.947 36.08 187.243 35.664C186.539 35.216 185.979 34.656 185.563 33.984C185.147 33.312 184.859 32.56 184.699 31.728C184.539 30.896 184.459 30.096 184.459 29.328V12H189.259ZM183.595 5.088C183.595 4.224 183.899 3.472 184.507 2.832C185.115 2.192 185.867 1.872 186.763 1.872C187.627 1.872 188.379 2.192 189.019 2.832C189.659 3.472 189.979 4.224 189.979 5.088C189.979 5.984 189.659 6.736 189.019 7.344C188.379 7.952 187.627 8.256 186.763 8.256C185.867 8.256 185.115 7.952 184.507 7.344C183.899 6.736 183.595 5.984 183.595 5.088ZM204.369 10.512C205.137 13.584 205.777 16.096 206.289 18.048C206.801 19.968 207.201 21.6 207.489 22.944C207.809 24.256 208.033 25.424 208.161 26.448C208.289 27.472 208.353 28.608 208.353 29.856C208.353 31.04 208.097 32.048 207.585 32.88C207.073 33.68 206.433 34.336 205.665 34.848C204.897 35.36 204.081 35.728 203.217 35.952C202.353 36.176 201.585 36.288 200.913 36.288C199.505 36.288 198.337 36.064 197.409 35.616C196.513 35.168 195.793 34.608 195.249 33.936C194.705 33.232 194.321 32.464 194.097 31.632C193.873 30.768 193.761 29.952 193.761 29.184C193.761 28.352 193.921 27.632 194.241 27.024C194.593 26.384 195.009 25.936 195.489 25.68C196.321 23.28 197.137 20.912 197.937 18.576C198.737 16.208 199.265 13.84 199.521 11.472L204.369 10.512ZM203.265 29.328C203.265 28.336 203.201 27.456 203.073 26.688C202.977 25.92 202.817 25.072 202.593 24.144C202.369 23.216 202.081 22.096 201.729 20.784C201.409 19.44 201.025 17.728 200.577 15.648C200.385 17.44 199.985 19.152 199.377 20.784C198.801 22.416 198.273 24.096 197.793 25.824C198.081 26.016 198.321 26.288 198.513 26.64C198.737 26.96 198.849 27.392 198.849 27.936C198.849 28.544 198.689 29.008 198.369 29.328C198.049 29.648 197.697 29.808 197.313 29.808C196.801 29.808 196.369 29.584 196.017 29.136C196.273 30.256 196.721 31.136 197.361 31.776C198.001 32.384 198.849 32.688 199.905 32.688C200.929 32.688 201.745 32.432 202.353 31.92C202.961 31.376 203.265 30.512 203.265 29.328Z" fill="black"/>
</svg>
