<svg fill="none" height="37" viewBox="0 0 209 37" width="209" xmlns="http://www.w3.org/2000/svg"><path d="m16.32 4.512v16.32c1.408 0 2.608-.288 3.6-.864 1.024-.608 1.856-1.376 2.496-2.304s1.104-1.968 1.392-3.12c.32-1.184.48-2.352.48-3.504 0-1.024-.112-2.08-.336-3.168-.192-1.088-.624-2.08-1.296-2.976-.672-.928-1.632-1.68-2.88-2.256-1.248-.608-2.912-.912-4.992-.912-1.408 0-2.736.224-3.984.672-1.248.416-2.336 1.04-3.264 1.872-.896.8-1.616 1.808-2.16 3.024-.512 1.184-.768 2.56-.768 4.128 0 .992.08 1.824.24 2.496s.352 1.232.576 1.68.448.8.672 1.056c.224.224.4.384.528.48-1.792 0-3.2-.448-4.224-1.344s-1.536-2.384-1.536-4.464c0-1.536.4-2.976 1.2-4.32.8-1.376 1.872-2.576 3.216-3.6 1.344-1.056 2.896-1.888 4.656-2.496 1.76-.608002 3.616-.91200286 5.568-.91200286 2.112 0 4 .27199986 5.664.81600086 1.664.512002 3.056 1.248002 4.176 2.208002 1.12.928 1.968 2.016 2.544 3.264.608 1.248.912 2.592.912 4.032 0 1.344-.24 2.736-.72 4.176-.48 1.408-1.2 2.688-2.16 3.84s-2.16 2.112-3.6 2.88c-1.408.736-3.056 1.104-4.944 1.104h-1.056v13.68h-5.184v-30.768zm19.5641 7.488v16.32c0 .32.016.72.048 1.2s.112.96.24 1.44c.16.448.384.848.672 1.2.288.32.688.48 1.2.48 1.568 0 2.72-1.744 3.456-5.232h1.776c-.352 2.016-.8 3.616-1.344 4.8-.544 1.152-1.12 2.032-1.728 2.64s-1.232.992-1.872 1.152c-.64.192-1.216.288-1.728.288-1.12 0-2.032-.208-2.736-.624-.704-.448-1.264-1.008-1.68-1.68s-.704-1.424-.864-2.256-.24-1.632-.24-2.4v-17.328zm-5.664-6.912c0-.864.304-1.616.912-2.256s1.36-.96 2.256-.96c.864 0 1.616.32 2.256.96s.96 1.392.96 2.256c0 .896-.32 1.648-.96 2.256s-1.392.912-2.256.912c-.896 0-1.648-.304-2.256-.912s-.912-1.36-.912-2.256zm22.1183 14.256c.256-.224.448-.576.576-1.056.16-.512.24-.992.24-1.44 0-.736-.24-1.344-.72-1.824-.448-.48-1.088-.72-1.92-.72-.864 0-1.584.32-2.16.96s-1.04 1.456-1.392 2.448c-.352.96-.608 2.048-.768 3.264-.128 1.184-.192 2.352-.192 3.504 0 1.696.144 3.072.432 4.128.32 1.056.736 1.888 1.248 2.496.512.576 1.104.976 1.776 1.2.704.224 1.44.336 2.208.336 1.696 0 3.12-.416 4.272-1.248 1.184-.864 2.192-2.192 3.024-3.984h1.632c-.384 1.184-.928 2.32-1.632 3.408-.704 1.056-1.52 2-2.448 2.832-.928.8-1.936 1.44-3.024 1.92s-2.224.72-3.408.72c-1.12 0-2.224-.192-3.312-.576s-2.064-1.008-2.928-1.872c-.864-.896-1.568-2.048-2.112-3.456-.544-1.44-.816-3.2-.816-5.28 0-1.344.112-2.784.336-4.32.256-1.568.704-3.008 1.344-4.32.672-1.344 1.584-2.464 2.736-3.36s2.64-1.344 4.464-1.344c2.016 0 3.552.496 4.608 1.488 1.056.96 1.584 2.384 1.584 4.272 0 .8-.16 1.472-.48 2.016-.288.544-.752.816-1.392.816-.704 0-1.296-.336-1.776-1.008zm11.4363-14.64v7.296h3.6961v1.68h-3.6961v14.64c0 .384.0161.832.0481 1.344.032.48.112.944.24 1.392.16.448.384.832.672 1.152.32.288.752.432 1.296.432.864 0 1.68-.432 2.448-1.296.8-.864 1.424-2.176 1.872-3.936h1.776c-.544 2.016-1.136 3.616-1.776 4.8-.608 1.152-1.248 2.032-1.92 2.64s-1.344.992-2.016 1.152c-.64.192-1.232.288-1.776.288-1.152 0-2.096-.208-2.832-.624-.736-.448-1.312-1.008-1.728-1.68s-.704-1.408-.864-2.208c-.16-.832-.24-1.648-.24-2.448v-15.648h-1.632v-1.68h1.632v-6.624zm22.7198 7.296v16.32c0 .32.016.72.048 1.2s.112.96.24 1.44c.16.448.384.848.672 1.2.288.32.688.48 1.2.48 1.568 0 2.72-1.744 3.456-5.232h1.776c-.352 2.016-.8 3.616-1.344 4.8-.544 1.152-1.12 2.032-1.728 2.64s-1.232.992-1.872 1.152c-.64.192-1.216.288-1.728.288-.736 0-1.376-.128-1.92-.384-.512-.256-.96-.592-1.344-1.008-.352-.416-.64-.896-.864-1.44s-.4-1.104-.528-1.68c-.608 1.568-1.408 2.72-2.4 3.456-.992.704-2.032 1.056-3.12 1.056-.928 0-1.808-.128-2.64-.384s-1.552-.672-2.16-1.248c-.608-.608-1.088-1.376-1.44-2.304-.352-.96-.528-2.128-.528-3.504v-16.848h4.8v16.32c0 1.568.272 2.688.816 3.36.544.64 1.232.96 2.064.96.448 0 .896-.112 1.344-.336.448-.256.848-.608 1.2-1.056s.64-.992.864-1.632.336-1.376.336-2.208v-15.408zm10.3729 0v4.032c.384-.576.752-1.12 1.104-1.632.384-.512.8-.96 1.248-1.344s.9436-.688 1.4876-.912c.544-.256 1.152-.384 1.824-.384 1.088 0 1.888.288 2.4.864.512.544.768 1.216.768 2.016 0 .48-.08.88-.24 1.2s-.352.576-.576.768-.464.336-.72.432c-.256.064-.48.096-.672.096-.288 0-.528-.064-.72-.192-.16-.128-.336-.256-.528-.384-.16-.16-.352-.304-.576-.432s-.512-.192-.864-.192c-.736 0-1.4396.256-2.1116.768s-1.28 1.056-1.824 1.632v17.664h-4.8v-24zm26.3486 6c0 2.24-.928 4.112-2.784 5.616-1.824 1.504-4.368 2.432-7.632 2.784.128 1.28.352 2.32.672 3.12.352.8.768 1.44 1.248 1.92.48.448 1.024.768 1.632.96.64.16 1.296.24 1.968.24 1.024 0 1.984-.176 2.88-.528.928-.352 1.696-.96 2.304-1.824.032.224.048.448.048.672.032.192.048.368.048.528 0 .736-.192 1.392-.576 1.968-.352.576-.848 1.088-1.488 1.536-.608.416-1.328.736-2.16.96-.8.224-1.648.336-2.544.336-1.088 0-2.176-.192-3.264-.576-1.088-.416-2.08-1.056-2.976-1.92-.864-.896-1.568-2.048-2.112-3.456s-.816-3.12-.816-5.136c0-1.344.144-2.8.432-4.368.32-1.568.832-3.024 1.536-4.368.736-1.344 1.68-2.464 2.832-3.36 1.184-.896 2.64-1.344 4.368-1.344.8 0 1.568.096 2.304.288.768.16 1.456.48 2.064.96.608.448 1.088 1.072 1.44 1.872.384.8.576 1.84.576 3.12zm-10.464 6.528c2.272-.352 4.064-1.152 5.376-2.4 1.344-1.248 2.016-2.784 2.016-4.608 0-1.216-.208-2.08-.624-2.592-.416-.544-1.008-.816-1.776-.816-.832 0-1.568.32-2.208.96-.608.64-1.12 1.472-1.536 2.496-.416.992-.736 2.112-.96 3.36-.192 1.216-.288 2.416-.288 3.6zm66.072 3.984c0 .256.016.624.048 1.104.032.448.112.896.24 1.344s.336.848.624 1.2c.288.32.704.48 1.248.48.736 0 1.392-.416 1.968-1.248.608-.832 1.104-2.16 1.488-3.984h1.776c-.352 2.016-.8 3.616-1.344 4.8-.544 1.152-1.12 2.032-1.728 2.64s-1.216.992-1.824 1.152c-.608.192-1.168.288-1.68.288-1.024 0-1.888-.192-2.592-.576-.704-.416-1.28-.96-1.728-1.632s-.784-1.456-1.008-2.352c-.192-.896-.288-1.824-.288-2.784 0-.288 0-.816 0-1.584.032-.8.048-1.648.048-2.544.032-.896.048-1.744.048-2.544.032-.8.048-1.36.048-1.68 0-1.024-.08-1.872-.24-2.544s-.384-1.2-.672-1.584-.624-.656-1.008-.816c-.352-.16-.736-.24-1.152-.24-.992 0-1.856.4-2.592 1.2-.704.8-1.28 2.144-1.728 4.032v15.36h-4.8v-30.912c-1.056-.064-2.16-.16-3.312-.288-1.12-.16-2.304-.352-3.552-.576v31.776h-5.28v-32.16c-.32-.032-.64-.048-.96-.048-.288-.032-.592-.048-.912-.048-2.688 0-4.784.496-6.288 1.488-1.472.96-2.208 2.72-2.208 5.28 0 1.92.24 3.392.72 4.416.512.992.992 1.744 1.44 2.256-.8 0-1.552-.112-2.256-.336-.672-.256-1.264-.656-1.776-1.2s-.912-1.248-1.2-2.112c-.288-.896-.432-2-.432-3.312s.256-2.576.768-3.792 1.328-2.288 2.448-3.216c1.152-.96 2.624-1.728 4.416-2.304 1.824-.576001 4.048-.8640006 6.672-.8640006 1.28 0 2.4.0639996 3.36.1919976.992.096001 1.92.224001 2.784.384001.864.128 1.712.256 2.544.384002.864.096 1.792.144 2.784.144 1.344 0 2.48-.032 3.408-.096.928-.064001 1.696-.224001 2.304-.480002-.128.480002-.24.992002-.336 1.536002-.064.512-.128 1.088-.192 1.728-.032.608-.064 1.296-.096 2.064s-.048 1.664-.048 2.688v7.056c.48-.864.96-1.552 1.44-2.064.512-.544 1.024-.944 1.536-1.2s.992-.416 1.44-.48c.48-.096.928-.144 1.344-.144 1.44 0 2.592.272 3.456.816.896.544 1.568 1.248 2.016 2.112.448.832.736 1.76.864 2.784.16.992.24 1.952.24 2.88 0 .576-.016 1.216-.048 1.92-.032.672-.064 1.376-.096 2.112-.032.704-.064 1.424-.096 2.16-.032.704-.048 1.36-.048 1.968zm10.435-16.512v16.32c0 .32.016.72.048 1.2s.112.96.24 1.44c.16.448.384.848.672 1.2.288.32.688.48 1.2.48 1.568 0 2.72-1.744 3.456-5.232h1.776c-.352 2.016-.8 3.616-1.344 4.8-.544 1.152-1.12 2.032-1.728 2.64s-1.232.992-1.872 1.152c-.64.192-1.216.288-1.728.288-1.12 0-2.032-.208-2.736-.624-.704-.448-1.264-1.008-1.68-1.68s-.704-1.424-.864-2.256-.24-1.632-.24-2.4v-17.328zm-5.664-6.912c0-.864.304-1.616.912-2.256s1.36-.96 2.256-.96c.864 0 1.616.32 2.256.96s.96 1.392.96 2.256c0 .896-.32 1.648-.96 2.256s-1.392.912-2.256.912c-.896 0-1.648-.304-2.256-.912s-.912-1.36-.912-2.256zm20.774 5.424c.768 3.072 1.408 5.584 1.92 7.536.512 1.92.912 3.552 1.2 4.896.32 1.312.544 2.48.672 3.504s.192 2.16.192 3.408c0 1.184-.256 2.192-.768 3.024-.512.8-1.152 1.456-1.92 1.968s-1.584.88-2.448 1.104-1.632.336-2.304.336c-1.408 0-2.576-.224-3.504-.672-.896-.448-1.616-1.008-2.16-1.68-.544-.704-.928-1.472-1.152-2.304-.224-.864-.336-1.68-.336-2.448 0-.832.16-1.552.48-2.16.352-.64.768-1.088 1.248-1.344.832-2.4 1.648-4.768 2.448-7.104.8-2.368 1.328-4.736 1.584-7.104zm-1.104 18.816c0-.992-.064-1.872-.192-2.64-.096-.768-.256-1.616-.48-2.544s-.512-2.048-.864-3.36c-.32-1.344-.704-3.056-1.152-5.136-.192 1.792-.592 3.504-1.2 5.136-.576 1.632-1.104 3.312-1.584 5.04.288.192.528.464.72.816.224.32.336.752.336 1.296 0 .608-.16 1.072-.48 1.392s-.672.48-1.056.48c-.512 0-.944-.224-1.296-.672.256 1.12.704 2 1.344 2.64.64.608 1.488.912 2.544.912 1.024 0 1.84-.256 2.448-.768.608-.544.912-1.408.912-2.592z" fill="#fff"/></svg>